<svg width="720" height="720" viewBox="0 0 720 720" fill="none" xmlns="http://www.w3.org/2000/svg">
<path stroke="#000" id="svg_1" d="m359.500225,15c-190.271126,0 -344.500225,154.238074 -344.500225,344.500091c0,190.271794 154.229099,344.499928 344.500225,344.499928c190.262221,0 344.500334,-154.228133 344.500334,-344.499928c0,-190.262017 -154.238085,-344.500091 -344.500334,-344.500091zm31.475697,542.918153l-64.162673,0l0,-61.530643l64.162673,0l0,61.530643zm0,-127.229954l0,20.335386l-64.162673,0l0,-25.055881c0,-75.608901 86.043506,-87.607306 86.043506,-141.345195c0,-24.503401 -21.908529,-43.273667 -50.590152,-43.273667c-29.72106,0 -55.788893,21.899226 -55.788893,21.899226l-36.529666,-45.391185c0,0 36.005399,-37.550964 98.060139,-37.550964c58.945741,0 113.676732,36.502377 113.676732,98.042034c0.027506,86.088973 -90.708993,96.017055 -90.708993,152.340219l0,0.000027z" fill-opacity="null" stroke-opacity="null" stroke-width="30" fill="none"/>
</svg>
