<svg width="278" height="60" viewBox="0 0 278 60" fill="none" xmlns="http://www.w3.org/2000/svg">
<path d="M49.6094 53.0508L37.793 41.2344C37.5 41.0391 37.207 40.8438 36.9141 40.8438H35.6445C38.6719 37.3281 40.625 32.6406 40.625 27.5625C40.625 16.4297 31.4453 7.25 20.3125 7.25C9.08203 7.25 0 16.4297 0 27.5625C0 38.793 9.08203 47.875 20.3125 47.875C25.3906 47.875 29.9805 46.0195 33.5938 42.9922V44.2617C33.5938 44.5547 33.6914 44.8477 33.8867 45.1406L45.7031 56.957C46.1914 57.4453 46.9727 57.4453 47.3633 56.957L49.6094 54.7109C50.0977 54.3203 50.0977 53.5391 49.6094 53.0508ZM20.3125 43.1875C11.6211 43.1875 4.6875 36.2539 4.6875 27.5625C4.6875 18.9688 11.6211 11.9375 20.3125 11.9375C28.9062 11.9375 35.9375 18.9688 35.9375 27.5625C35.9375 36.2539 28.9062 43.1875 20.3125 43.1875Z" fill="#2FA2A5"/>
<path d="M54.882 16.8893H62.9588C67.5401 16.8893 71.0951 18.0949 73.6237 20.5061C76.1821 22.9172 77.4613 26.534 77.4613 31.3563C77.4613 36.1786 76.197 39.84 73.6683 42.3405C71.1694 44.8112 67.7186 46.0465 63.3158 46.0465H54.882V16.8893ZM62.6018 41.0903C68.3136 41.0903 71.1694 37.8456 71.1694 31.3563C71.1694 27.9926 70.4257 25.5665 68.9383 24.0782C67.4806 22.5898 65.3684 21.8456 62.6018 21.8456H60.9954V41.0903H62.6018Z" fill="#2FA2A5"/>
<path d="M91.9119 46.5823C90.0079 46.5823 88.2379 46.1209 86.6017 45.1982C84.9953 44.2754 83.7012 42.9358 82.7195 41.1796C81.7378 39.4233 81.2469 37.3693 81.2469 35.0177C81.2469 32.6363 81.7378 30.5675 82.7195 28.8112C83.7012 27.0549 84.9953 25.7154 86.6017 24.7926C88.2379 23.8698 90.0079 23.4084 91.9119 23.4084C93.786 23.4084 95.5412 23.8698 97.1774 24.7926C98.8136 25.7154 100.123 27.0698 101.104 28.8558C102.086 30.6121 102.577 32.6661 102.577 35.0177C102.577 37.3693 102.086 39.4233 101.104 41.1796C100.123 42.9358 98.8136 44.2754 97.1774 45.1982C95.5412 46.1209 93.786 46.5823 91.9119 46.5823ZM91.9119 41.6261C93.3101 41.6261 94.3959 41.0456 95.1694 39.8847C95.9428 38.694 96.3296 37.0717 96.3296 35.0177C96.3296 32.9637 95.9428 31.3414 95.1694 30.1507C94.3959 28.96 93.3101 28.3647 91.9119 28.3647C90.4839 28.3647 89.3832 28.96 88.6098 30.1507C87.866 31.3414 87.4942 32.9637 87.4942 35.0177C87.4942 37.0717 87.866 38.694 88.6098 39.8847C89.3832 41.0456 90.4839 41.6261 91.9119 41.6261Z" fill="#2FA2A5"/>
<path d="M116.71 46.5823C114.658 46.5823 112.813 46.1209 111.177 45.1982C109.541 44.2754 108.247 42.9507 107.295 41.2242C106.373 39.4679 105.912 37.3991 105.912 35.0177C105.912 32.6363 106.417 30.5675 107.429 28.8112C108.47 27.0549 109.853 25.7154 111.579 24.7926C113.304 23.8698 115.193 23.4084 117.246 23.4084C119.656 23.4084 121.812 24.2121 123.716 25.8196L120.816 29.7489C120.251 29.2726 119.715 28.9303 119.209 28.7219C118.704 28.4837 118.168 28.3647 117.603 28.3647C115.967 28.3647 114.643 28.9749 113.631 30.1954C112.65 31.3861 112.159 32.9935 112.159 35.0177C112.159 37.0121 112.635 38.6196 113.587 39.84C114.569 41.0307 115.833 41.6261 117.38 41.6261C118.719 41.6261 120.117 41.0605 121.574 39.9293L123.984 43.9033C122.943 44.7963 121.783 45.4661 120.503 45.9126C119.254 46.3591 117.99 46.5823 116.71 46.5823Z" fill="#2FA2A5"/>
<path d="M134.641 46.5823C132.321 46.5823 130.595 45.8233 129.465 44.3051C128.364 42.7572 127.814 40.5544 127.814 37.6968V23.9442H133.882V36.9377C133.882 38.5451 134.12 39.6912 134.596 40.3758C135.072 41.0307 135.831 41.3582 136.872 41.3582C137.735 41.3582 138.464 41.1647 139.059 40.7777C139.683 40.361 140.368 39.6763 141.111 38.7237V23.9442H147.18V46.0465H142.227L141.781 42.921H141.602C140.591 44.1117 139.535 45.0196 138.434 45.6447C137.333 46.2698 136.069 46.5823 134.641 46.5823Z" fill="#2FA2A5"/>
<path d="M150.769 23.9442H156.927L160.006 34.7051L161.746 41.4475H161.925L163.71 34.7051L166.789 23.9442H172.634L165.316 46.0465H158.31L150.769 23.9442Z" fill="#2FA2A5"/>
<path d="M176.19 23.9442H182.258V46.0465H176.19V23.9442ZM179.224 20.5061C178.213 20.5061 177.38 20.2084 176.725 19.613C176.1 18.9879 175.788 18.1991 175.788 17.2465C175.788 16.294 176.1 15.52 176.725 14.9247C177.38 14.2996 178.213 13.987 179.224 13.987C180.235 13.987 181.054 14.2996 181.678 14.9247C182.333 15.52 182.66 16.294 182.66 17.2465C182.66 18.1991 182.333 18.9879 181.678 19.613C181.054 20.2084 180.235 20.5061 179.224 20.5061Z" fill="#2FA2A5"/>
<path d="M194.729 46.5823C193.301 46.5823 191.813 46.2996 190.266 45.734C188.749 45.1684 187.425 44.4242 186.295 43.5014L189.062 39.6614C190.103 40.4651 191.085 41.0605 192.007 41.4475C192.959 41.8344 193.926 42.0279 194.907 42.0279C195.919 42.0279 196.677 41.8493 197.183 41.4921C197.689 41.1051 197.942 40.5693 197.942 39.8847C197.942 39.4084 197.733 38.9916 197.317 38.6344C196.93 38.2772 196.365 37.9498 195.621 37.6521C194.878 37.3247 194.134 37.0121 193.39 36.7144C191.635 36.0298 190.192 35.1963 189.062 34.214C187.961 33.2019 187.411 31.8772 187.411 30.24C187.411 28.2158 188.169 26.5786 189.686 25.3284C191.204 24.0484 193.212 23.4084 195.71 23.4084C198.447 23.4084 200.991 24.3312 203.341 26.1768L200.619 29.8382C198.864 28.5879 197.287 27.9628 195.889 27.9628C194.967 27.9628 194.268 28.1414 193.792 28.4986C193.345 28.8558 193.122 29.3321 193.122 29.9275C193.122 30.5228 193.42 31.014 194.015 31.401C194.61 31.7582 195.294 32.0707 196.067 32.3386C196.841 32.6065 197.347 32.7851 197.585 32.8744C199.459 33.5591 200.931 34.3926 202.002 35.3749C203.103 36.3275 203.653 37.7116 203.653 39.5275C203.653 40.867 203.296 42.0726 202.582 43.1442C201.898 44.1861 200.887 45.0196 199.548 45.6447C198.209 46.2698 196.603 46.5823 194.729 46.5823Z" fill="#2FA2A5"/>
<path d="M207.957 23.9442H214.026V46.0465H207.957V23.9442ZM210.992 20.5061C209.98 20.5061 209.147 20.2084 208.493 19.613C207.868 18.9879 207.556 18.1991 207.556 17.2465C207.556 16.294 207.868 15.52 208.493 14.9247C209.147 14.2996 209.98 13.987 210.992 13.987C212.003 13.987 212.821 14.2996 213.446 14.9247C214.101 15.52 214.428 16.294 214.428 17.2465C214.428 18.1991 214.101 18.9879 213.446 19.613C212.821 20.2084 212.003 20.5061 210.992 20.5061Z" fill="#2FA2A5"/>
<path d="M229.442 46.5823C227.538 46.5823 225.768 46.1209 224.132 45.1982C222.525 44.2754 221.231 42.9358 220.249 41.1796C219.268 39.4233 218.777 37.3693 218.777 35.0177C218.777 32.6363 219.268 30.5675 220.249 28.8112C221.231 27.0549 222.525 25.7154 224.132 24.7926C225.768 23.8698 227.538 23.4084 229.442 23.4084C231.316 23.4084 233.071 23.8698 234.707 24.7926C236.343 25.7154 237.652 27.0698 238.634 28.8558C239.616 30.6121 240.107 32.6661 240.107 35.0177C240.107 37.3693 239.616 39.4233 238.634 41.1796C237.652 42.9358 236.343 44.2754 234.707 45.1982C233.071 46.1209 231.316 46.5823 229.442 46.5823ZM229.442 41.6261C230.84 41.6261 231.926 41.0456 232.699 39.8847C233.473 38.694 233.859 37.0717 233.859 35.0177C233.859 32.9637 233.473 31.3414 232.699 30.1507C231.926 28.96 230.84 28.3647 229.442 28.3647C228.014 28.3647 226.913 28.96 226.14 30.1507C225.396 31.3414 225.024 32.9637 225.024 35.0177C225.024 37.0717 225.396 38.694 226.14 39.8847C226.913 41.0456 228.014 41.6261 229.442 41.6261Z" fill="#2FA2A5"/>
<path d="M244.78 23.9442H249.733L250.18 26.8019H250.358C251.429 25.76 252.53 24.9414 253.66 24.3461C254.82 23.721 256.1 23.4084 257.498 23.4084C259.818 23.4084 261.529 24.1823 262.629 25.7303C263.76 27.2484 264.325 29.4363 264.325 32.294V46.0465H258.212V33.053C258.212 31.4158 257.974 30.2698 257.498 29.6149C257.052 28.96 256.308 28.6326 255.267 28.6326C254.434 28.6326 253.705 28.8112 253.08 29.1684C252.455 29.5256 251.712 30.121 250.849 30.9544V46.0465H244.78V23.9442Z" fill="#2FA2A5"/>
<path d="M29.5625 19.125H11.6875C11.3008 19.125 11 19.4688 11 19.8125V23.25C11 23.6367 11.3008 23.9375 11.6875 23.9375H12.375C12.7188 23.9375 13.0625 23.6367 13.0625 23.25V21.875H19.25V36.3125H17.1875C16.8008 36.3125 16.5 36.6562 16.5 37V37.6875C16.5 38.0742 16.8008 38.375 17.1875 38.375H24.0625C24.4062 38.375 24.75 38.0742 24.75 37.6875V37C24.75 36.6562 24.4062 36.3125 24.0625 36.3125H22V21.875H28.1875V23.25C28.1875 23.6367 28.4883 23.9375 28.875 23.9375H29.5625C29.9062 23.9375 30.25 23.6367 30.25 23.25V19.8125C30.25 19.4688 29.9062 19.125 29.5625 19.125Z" fill="#3E456F"/>
</svg>
